<svg xmlns="http://www.w3.org/2000/svg" height="40" class="icon" viewBox="0 0 1024 1024">
    <path fill="#fff" d="M861.07 382.29c14.418 40.582 22.273 84.248 22.273 129.713 0 214.217-174.278 388.495-388.496 388.495-214.216 0-388.494-174.278-388.494-388.495s174.278-388.5 388.494-388.5c66.46 0 129.076 16.782 183.84 46.323l54.907-46.686a454.95 454.95 0 0 0-61.151-31.506c-56.267-23.803-116.02-35.869-177.596-35.869s-121.328 12.066-177.6 35.869c-54.33 22.98-103.122 55.874-145.01 97.758-41.89 41.888-74.778 90.682-97.759 145.01-23.802 56.267-35.868 116.02-35.868 177.6 0 61.575 12.066 121.328 35.868 177.596 22.98 54.333 55.874 103.122 97.759 145.01 41.888 41.888 90.68 74.778 145.01 97.762 56.267 23.798 116.02 35.865 177.6 35.865 61.576 0 121.329-12.067 177.596-35.865 54.334-22.984 103.121-55.874 145.01-97.762 41.889-41.888 74.779-90.677 97.763-145.01 23.798-56.268 35.863-116.02 35.863-177.597 0-60.97-11.833-120.145-35.166-175.923l-54.844 46.213zM494.846 228.019c-75.853 0-147.171 29.54-200.807 83.177-53.637 53.635-83.173 124.954-83.173 200.806 0 75.854 29.536 147.168 83.173 200.804 53.64 53.636 124.954 83.177 200.807 83.177 75.854 0 147.167-29.541 200.804-83.177 53.636-53.636 83.176-124.95 83.176-200.804 0-23.231-2.783-46.034-8.167-68.04-.313.005-.62.02-.933.02h-.006c-3.576 0-7.262-.349-10.98-1.035l-45.248-6.52-12.408 10.536c6.49 20.534 10 42.383 10 65.04 0 119.232-97.005 216.237-216.243 216.237-119.233 0-216.237-97.005-216.237-216.238 0-119.236 97.004-216.242 216.237-216.242 33.545 0 65.33 7.677 93.692 21.37l14.132-11.915-.283-45.424c-.082-3.55.201-7.046.808-10.45-33.91-13.988-70.56-21.322-108.344-21.322zm489.829-42.737a18.873 18.873 0 0 0-15.329-13.505l-67.15-10.152.787-68.293a18.855 18.855 0 0 0-10.829-17.282 18.851 18.851 0 0 0-20.222 2.671L665.297 253.69a18.886 18.886 0 0 0-6.672 14.142l-.843 62.68-119.657 101.324c-12.873-6.964-27.617-10.919-43.278-10.919-50.308 0-91.085 40.778-91.085 91.086 0 50.304 40.777 91.086 91.085 91.086 50.303 0 91.086-40.782 91.086-91.086 0-13.571-2.99-26.434-8.313-38l117.449-99.45 61.965 9.495a18.871 18.871 0 0 0 15.05-4.253l206.632-174.97a18.878 18.878 0 0 0 5.96-19.544z"/>
</svg>
